<?xml version="1.0" encoding="UTF-8"?>
<svg xmlns="http://www.w3.org/2000/svg" xmlns:xlink="http://www.w3.org/1999/xlink" width="375pt" height="374.999991pt" viewBox="0 0 375 374.999991" version="1.2">
<defs>
<clipPath id="clip1">
  <path d="M 16.449219 15.699219 L 359.949219 15.699219 L 359.949219 359.199219 L 16.449219 359.199219 Z M 16.449219 15.699219 "/>
</clipPath>
</defs>
<g id="surface1">
<g clip-path="url(#clip1)" clip-rule="nonzero">
<path style=" stroke:none;fill-rule:nonzero;fill:rgb(44.309998%,25.489807%,21.179199%);fill-opacity:1;" d="M 116.609375 15.699219 C 61.375 15.699219 16.449219 60.667969 16.449219 115.914062 L 16.449219 259.039062 C 16.449219 314.269531 61.417969 359.199219 116.664062 359.199219 L 259.789062 359.199219 C 315.019531 359.199219 359.949219 314.230469 359.949219 258.984375 L 359.949219 115.859375 C 359.949219 60.625 314.980469 15.699219 259.734375 15.699219 Z M 288.386719 72.949219 C 296.285156 72.949219 302.699219 79.359375 302.699219 87.261719 C 302.699219 95.160156 296.285156 101.574219 288.386719 101.574219 C 280.484375 101.574219 274.074219 95.160156 274.074219 87.261719 C 274.074219 79.359375 280.484375 72.949219 288.386719 72.949219 Z M 188.199219 101.574219 C 235.558594 101.574219 274.074219 140.089844 274.074219 187.449219 C 274.074219 234.808594 235.558594 273.324219 188.199219 273.324219 C 140.839844 273.324219 102.324219 234.808594 102.324219 187.449219 C 102.324219 140.089844 140.839844 101.574219 188.199219 101.574219 Z M 188.199219 130.199219 C 186.324219 130.199219 184.453125 130.289062 182.585938 130.472656 C 180.722656 130.65625 178.867188 130.933594 177.03125 131.296875 C 175.191406 131.664062 173.375 132.121094 171.578125 132.664062 C 169.785156 133.207031 168.023438 133.839844 166.289062 134.554688 C 164.558594 135.273438 162.863281 136.074219 161.210938 136.957031 C 159.558594 137.84375 157.949219 138.804688 156.390625 139.847656 C 154.832031 140.886719 153.328125 142.003906 151.878906 143.195312 C 150.429688 144.382812 149.042969 145.640625 147.714844 146.964844 C 146.390625 148.292969 145.132812 149.679688 143.945312 151.128906 C 142.753906 152.578125 141.636719 154.082031 140.597656 155.640625 C 139.554688 157.199219 138.59375 158.808594 137.707031 160.460938 C 136.824219 162.113281 136.023438 163.808594 135.304688 165.539062 C 134.589844 167.273438 133.957031 169.035156 133.414062 170.828125 C 132.871094 172.625 132.414062 174.441406 132.046875 176.28125 C 131.683594 178.117188 131.40625 179.972656 131.222656 181.835938 C 131.039062 183.703125 130.949219 185.574219 130.949219 187.449219 C 130.949219 189.324219 131.039062 191.195312 131.222656 193.058594 C 131.40625 194.925781 131.683594 196.777344 132.046875 198.617188 C 132.414062 200.457031 132.871094 202.273438 133.414062 204.066406 C 133.957031 205.863281 134.589844 207.625 135.304688 209.355469 C 136.023438 211.089844 136.824219 212.78125 137.707031 214.4375 C 138.59375 216.089844 139.554688 217.695312 140.597656 219.253906 C 141.636719 220.8125 142.753906 222.316406 143.945312 223.765625 C 145.132812 225.21875 146.390625 226.605469 147.714844 227.929688 C 149.042969 229.257812 150.429688 230.515625 151.878906 231.703125 C 153.328125 232.894531 154.832031 234.007812 156.390625 235.050781 C 157.949219 236.089844 159.558594 237.054688 161.210938 237.9375 C 162.863281 238.820312 164.558594 239.621094 166.289062 240.339844 C 168.023438 241.058594 169.785156 241.6875 171.578125 242.234375 C 173.375 242.777344 175.191406 243.234375 177.03125 243.597656 C 178.867188 243.964844 180.722656 244.238281 182.585938 244.421875 C 184.453125 244.605469 186.324219 244.699219 188.199219 244.699219 C 190.074219 244.699219 191.945312 244.605469 193.808594 244.421875 C 195.675781 244.238281 197.527344 243.964844 199.367188 243.597656 C 201.207031 243.234375 203.023438 242.777344 204.816406 242.234375 C 206.613281 241.6875 208.375 241.058594 210.105469 240.339844 C 211.839844 239.621094 213.53125 238.820312 215.1875 237.9375 C 216.839844 237.054688 218.445312 236.089844 220.003906 235.050781 C 221.5625 234.007812 223.066406 232.894531 224.515625 231.703125 C 225.96875 230.515625 227.355469 229.257812 228.679688 227.929688 C 230.007812 226.605469 231.265625 225.21875 232.453125 223.765625 C 233.644531 222.316406 234.757812 220.8125 235.800781 219.253906 C 236.839844 217.695312 237.804688 216.089844 238.6875 214.4375 C 239.570312 212.78125 240.371094 211.089844 241.089844 209.355469 C 241.808594 207.625 242.4375 205.863281 242.984375 204.066406 C 243.527344 202.273438 243.984375 200.457031 244.347656 198.617188 C 244.714844 196.777344 244.988281 194.925781 245.171875 193.058594 C 245.355469 191.195312 245.449219 189.324219 245.449219 187.449219 C 245.449219 185.574219 245.355469 183.703125 245.171875 181.835938 C 244.988281 179.972656 244.714844 178.117188 244.347656 176.28125 C 243.984375 174.441406 243.527344 172.625 242.984375 170.828125 C 242.4375 169.035156 241.808594 167.273438 241.089844 165.539062 C 240.371094 163.808594 239.570312 162.113281 238.6875 160.460938 C 237.804688 158.808594 236.839844 157.199219 235.800781 155.640625 C 234.757812 154.082031 233.644531 152.578125 232.453125 151.128906 C 231.265625 149.679688 230.007812 148.292969 228.679688 146.964844 C 227.355469 145.640625 225.96875 144.382812 224.515625 143.195312 C 223.066406 142.003906 221.5625 140.886719 220.003906 139.847656 C 218.445312 138.804688 216.839844 137.84375 215.1875 136.957031 C 213.53125 136.074219 211.839844 135.273438 210.105469 134.554688 C 208.375 133.839844 206.613281 133.207031 204.816406 132.664062 C 203.023438 132.121094 201.207031 131.664062 199.367188 131.296875 C 197.527344 130.933594 195.675781 130.65625 193.808594 130.472656 C 191.945312 130.289062 190.074219 130.199219 188.199219 130.199219 Z M 188.199219 130.199219 "/>
</g>
</g>
</svg>
